<svg xmlns="http://www.w3.org/2000/svg" width="28.305" height="28.304" viewBox="0 0 28.305 28.304"><path d="M26.05,16.179A1.087,1.087,0,0,0,25.039,15a1.4,1.4,0,0,0-1.1.539.546.546,0,0,1-.421.217.505.505,0,0,1-.413-.217,1.4,1.4,0,0,0-1.1-.538A1.087,1.087,0,0,0,21,16.179c0,.949.917,1.963,2.527,2.8C25.133,18.142,26.05,17.128,26.05,16.179Z" transform="translate(-10.382 -7.418)"/><path d="M19.6,38.019a6.741,6.741,0,0,0,6.549-5.09,8.481,8.481,0,0,1-6.549,2.8,8.478,8.478,0,0,1-6.545-2.8A6.747,6.747,0,0,0,19.6,38.019Z" transform="translate(-6.455 -16.286)"/><path d="M26.1,25.3a.169.169,0,0,0,.013-.077,7.208,7.208,0,0,1-5.052,1.875h-.012A7.2,7.2,0,0,1,16,25.222a.165.165,0,0,0,.012.076,5.472,5.472,0,0,0,10.087,0Z" transform="translate(-7.913 -12.472)"/><path d="M49.4.443a1.52,1.52,0,0,0-2.146,0l-3.7,3.7A14.291,14.291,0,0,1,45.7,6.293l3.7-3.7a1.52,1.52,0,0,0,0-2.146Z" transform="translate(-21.539 0)"/><path d="M13.141,4A13.141,13.141,0,1,0,26.282,17.141,13.141,13.141,0,0,0,13.141,4ZM4.587,24.259a.505.505,0,0,1-.708-.1A11.622,11.622,0,0,1,20.162,7.879a.505.505,0,0,1-.612.8A10.611,10.611,0,0,0,4.684,23.551a.505.505,0,0,1-.1.708Zm1.567-6.735a.889.889,0,0,1,1.1.3,7.2,7.2,0,0,0,5.381,2.563V19.143a6.345,6.345,0,0,1-5.482-3.981,1.1,1.1,0,0,1,.409-1.333.942.942,0,0,1,1.2.143,6.081,6.081,0,0,0,3.874,1.595V14.414C10.012,13.032,9.6,11.529,9.6,10.739a2.088,2.088,0,0,1,2.022-2.19,2.376,2.376,0,0,1,1.516.542,2.375,2.375,0,0,1,1.516-.542,2.088,2.088,0,0,1,2.022,2.19c0,.79-.408,2.293-3.033,3.675v1.152a6.08,6.08,0,0,0,3.879-1.6.94.94,0,0,1,1.2-.145,1.1,1.1,0,0,1,.41,1.335,6.342,6.342,0,0,1-5.486,3.985v1.244a7.2,7.2,0,0,0,5.385-2.567.887.887,0,0,1,1.1-.3,1.086,1.086,0,0,1,.566,1.235,7.746,7.746,0,0,1-7.05,5.947v1.538a.505.505,0,0,1-1.011,0V24.7A7.753,7.753,0,0,1,5.59,18.758a1.084,1.084,0,0,1,.565-1.234Zm15.207,7.834A11.656,11.656,0,0,1,6.12,26.4a.505.505,0,1,1,.612-.8A10.611,10.611,0,0,0,21.6,10.731a.505.505,0,1,1,.8-.612,11.658,11.658,0,0,1-1.042,15.241Z" transform="translate(0 -1.978)"/></svg>