<svg xmlns="http://www.w3.org/2000/svg" width="94.679" height="90.939" viewBox="0 0 94.679 90.939">
  <g id="crafted" transform="translate(-308 -749.783)">
    <path id="Path_12" data-name="Path 12" d="M22.83,0C35.439,0,45.66,21.416,45.66,34.024a22.83,22.83,0,0,1-45.66,0C0,21.416,10.221,0,22.83,0Z" transform="translate(372.126 749.783) rotate(48)" fill="#3b9189" opacity="0.8"/>
    <g id="Out_line" data-name="Out line" transform="translate(308 776.348)">
      <path id="Path_3" data-name="Path 3" d="M443.021,141.41a28.354,28.354,0,0,0-4.5-7.525l-1.354-1.625,1.658-1.382,1.354,1.625a30.507,30.507,0,0,1,4.847,8.1Z" transform="translate(-380.338 -115.767)" fill="#1c1c1c"/>
      <path id="Path_4" data-name="Path 4" d="M94.7,149.639l-2.038-.711a30.463,30.463,0,0,1,5.377-9.5l.455-.546,1.658,1.382-.455.546A28.314,28.314,0,0,0,94.7,149.639Z" transform="translate(-82.315 -122.688)" fill="#1c1c1c"/>
      <path id="Path_5" data-name="Path 5" d="M129.069,177.66l-1.992-.832A26.279,26.279,0,0,1,130.3,171.2l1.727,1.3a24.117,24.117,0,0,0-2.954,5.166Z" transform="translate(-112.091 -150.648)" fill="#1c1c1c"/>
      <path id="Path_6" data-name="Path 6" d="M460.047,294.714l-2.086-.556a24.1,24.1,0,0,0,.815-6.2h2.159A26.26,26.26,0,0,1,460.047,294.714Z" transform="translate(-398.331 -251.649)" fill="#1c1c1c"/>
      <path id="Path_7" data-name="Path 7" d="M431.223,177.661a24.117,24.117,0,0,0-2.954-5.166L430,171.2a26.278,26.278,0,0,1,3.218,5.628Z" transform="translate(-372.645 -150.649)" fill="#1c1c1c"/>
      <path id="Path_8" data-name="Path 8" d="M149.969,363.926v4.317c0,2.577-2.893,4.783-8.365,6.379a69.4,69.4,0,0,1-18.619,2.256,69.4,69.4,0,0,1-18.619-2.256c-5.472-1.6-8.365-3.8-8.365-6.379v-1.079h2.159v1.079c0,2.7,9.445,6.476,24.826,6.476s24.826-3.772,24.826-6.476v-.738a19.551,19.551,0,0,1-6.206,2.8,69.4,69.4,0,0,1-18.619,2.256c-1.094,0-2.2-.02-3.277-.059l.078-2.157c1.054.039,2.13.058,3.2.058,15.381,0,24.826-3.772,24.826-6.476,0-1.148-1.757-2.5-4.7-3.607l.761-2.02c3.369,1.271,5.355,2.8,5.924,4.547a3.453,3.453,0,0,1,.171,1.079Z" transform="translate(-85.206 -312.505)" fill="#1c1c1c"/>
      <path id="Path_9" data-name="Path 9" d="M69.2,41.143l-.37-.443a4.971,4.971,0,0,0-2.3-3.486,24.2,24.2,0,0,0-9.372-3.376l-.3,2.139a22.061,22.061,0,0,1,8.539,3.075,2.784,2.784,0,0,1,0,4.743A22.112,22.112,0,0,1,52.37,47.048l3.49-8.727a1.079,1.079,0,0,0-.146-1.056L41.682,18.915l-1.714,1.311L53.627,38.089l-3.48,8.7h0a22.41,22.41,0,0,1-2.844-.671V39H45.143V49.685A5.408,5.408,0,0,1,40.826,44.4V41.158a1.08,1.08,0,0,0-.316-.764l-.5-.5a11.871,11.871,0,0,1-3.5-8.45v-5.4H34.349v3.494L25.465,18.88l-1.66,1.382L34.437,33.02a13.984,13.984,0,0,0,3.852,8.2,21.928,21.928,0,0,0-3.25,5.333h-.689a1.08,1.08,0,0,0-.764.316l-6.159,6.161H16V55.19H27.873a1.08,1.08,0,0,0,.764-.316L34.8,48.714h2.731a9.281,9.281,0,0,1-2.676,5.528l-1.266,1.264a1.08,1.08,0,0,0,.529,1.817l9.714,2.159a1.062,1.062,0,0,0,.235.026h5.4a1.079,1.079,0,0,1,0,2.159H44.183l-7.44-1.653-.47,2.107L43.829,63.8a1.062,1.062,0,0,0,.235.026h7.556a1.079,1.079,0,0,1,0,2.159H44.183l-7.44-1.653-.47,2.107,7.556,1.678a1.062,1.062,0,0,0,.235.026h5.4a1.079,1.079,0,1,1,0,2.159H44.183l-7.44-1.653-.47,2.107,7.556,1.678a1.062,1.062,0,0,0,.235.026H47.3a1.079,1.079,0,0,1,0,2.159H44.183l-9.469-2.1L26.2,68.256a1.09,1.09,0,0,0-.483-.113H16V70.3h9.459l8.407,4.2a1.111,1.111,0,0,0,.248.088l9.714,2.159a1.062,1.062,0,0,0,.235.026H47.3A3.242,3.242,0,0,0,50.54,73.54a3.2,3.2,0,0,0-.229-1.194,3.221,3.221,0,0,0,1.561-.965H62.1a10.785,10.785,0,0,0,9.425-5.545A21.931,21.931,0,0,0,69.2,41.143ZM37.411,46.555a19.439,19.439,0,0,1,1.256-2.213V44.4A7.476,7.476,0,0,0,39,46.606a1.073,1.073,0,0,0-.331-.051ZM69.64,64.786A8.63,8.63,0,0,1,62.1,69.222H52.7a3.2,3.2,0,0,0-.229-1.194,3.237,3.237,0,0,0,0-6.247,3.2,3.2,0,0,0,.229-1.194,3.242,3.242,0,0,0-3.238-3.238H44.183L36.5,55.642a11.408,11.408,0,0,0,3.227-7.387,7.557,7.557,0,0,0,6.494,3.7A1.079,1.079,0,0,0,47.3,50.873v-2.5a24.256,24.256,0,0,0,19.236-2.736,4.951,4.951,0,0,0,1.84-2.031,19.655,19.655,0,0,1,2.3,4.168A9.078,9.078,0,0,1,68.8,49.31a28.735,28.735,0,0,1-5.719,2.7l.7,2.043a30.823,30.823,0,0,0,6.148-2.9,10.989,10.989,0,0,0,1.511-1.114,19.662,19.662,0,0,1,.681,4.834A35.121,35.121,0,0,1,63.2,58.751l.58,2.081A37.187,37.187,0,0,0,72,57.442,19.8,19.8,0,0,1,69.64,64.786Z" transform="translate(-16 -18.88)" fill="#1c1c1c"/>
      <path id="Path_10" data-name="Path 10" d="M319.478,323.428l-.193-2.15c.7-.063,1.4-.147,2.094-.251l.321,2.135C320.966,323.272,320.218,323.361,319.478,323.428Z" transform="translate(-278.365 -280.26)" fill="#1c1c1c"/>
      <path id="Path_11" data-name="Path 11" d="M319.365,274.859l-.235-2.146c.695-.076,1.395-.179,2.08-.305l.392,2.123C320.864,274.666,320.112,274.777,319.365,274.859Z" transform="translate(-278.231 -238.201)" fill="#1c1c1c"/>
    </g>
  </g>
</svg>
