<svg xmlns="http://www.w3.org/2000/svg" width="14.413" height="14.414" viewBox="0 0 14.413 14.414"><g transform="translate(8.516 8.516)"><path d="M39.191,39.242a.552.552,0,0,1-.392-.162l-1.408-1.408a.554.554,0,1,1,.784-.784L39.583,38.3a.554.554,0,0,1-.392.946Z" transform="translate(-37.228 -36.725)"/></g><g transform="translate(9.924 11.1)"><path d="M44.822,49.117a.552.552,0,0,1-.392-.162l-1.96-1.96a.554.554,0,1,1,.784-.784l1.96,1.96a.554.554,0,0,1-.392.946Z" transform="translate(-42.308 -46.048)"/></g><g transform="translate(11.099 9.924)"><path d="M49.064,44.874a.552.552,0,0,1-.392-.162l-1.96-1.96a.554.554,0,0,1,.784-.784l1.96,1.96a.554.554,0,0,1-.392.946Z" transform="translate(-46.55 -41.805)"/></g><g transform="translate(9.678 9.679)"><path d="M42.222,43.45a.552.552,0,0,1-.392-.162A1.308,1.308,0,0,1,41.468,42,1.485,1.485,0,0,1,42.5,40.966a1.307,1.307,0,0,1,1.288.362.554.554,0,0,1-.784.784.2.2,0,0,0-.217-.075.379.379,0,0,0-.249.25.2.2,0,0,0,.075.217.554.554,0,0,1-.392.946Z" transform="translate(-41.422 -40.92)"/></g><path d="M12.014,17.082h0a5.429,5.429,0,0,1-1.467-.2A5.544,5.544,0,0,1,12.065,6c.165,0,.332.008.5.023a5.583,5.583,0,0,1,5.03,5.52,5.52,5.52,0,0,1-.36,1.969A5.6,5.6,0,0,1,12.014,17.082Zm.05-9.974a4.435,4.435,0,0,0-1.218,8.7,4.325,4.325,0,0,0,1.167.16h0a4.482,4.482,0,0,0,4.18-2.856,4.413,4.413,0,0,0,.288-1.575A4.465,4.465,0,0,0,12.46,7.127C12.329,7.115,12.2,7.109,12.065,7.109Z" transform="translate(-6.506 -6)"/><g transform="translate(11.884 11.884)"><path d="M50.487,51.405A1.328,1.328,0,0,1,49.541,51a.554.554,0,0,1,.784-.784.205.205,0,0,0,.217.075.379.379,0,0,0,.249-.25.2.2,0,0,0-.075-.217.554.554,0,1,1,.783-.784,1.308,1.308,0,0,1,.363,1.288,1.485,1.485,0,0,1-1.034,1.034A1.3,1.3,0,0,1,50.487,51.405Z" transform="translate(-49.379 -48.875)"/></g></svg>