<svg xmlns="http://www.w3.org/2000/svg" width="30" height="30" viewBox="0 0 30 30"><g transform="translate(-1143 -1468)"><circle cx="15" cy="15" r="15" transform="translate(1143 1468)" fill="#343434"/><g transform="translate(1150.999 1476.992)"><path d="M42.927,46.408a.607.607,0,0,1,0,1.2H29.516a.607.607,0,0,1,0-1.2Zm0-5.2a.607.607,0,0,1,0,1.2H29.516a.607.607,0,0,1,0-1.2Zm0-5.2a.607.607,0,0,1,0,1.2H29.516a.607.607,0,0,1,0-1.2Z" transform="translate(-29 -36)" fill="#fff" fill-rule="evenodd"/></g></g></svg>