<svg xmlns="http://www.w3.org/2000/svg" width="72.536" height="69.422" viewBox="0 0 72.536 69.422"><g transform="translate(-660 -927.943)"><path d="M19.679,0c10.868,0,27.983,1.835,27.983,12.7S30.547,39.36,19.679,39.36A19.679,19.679,0,0,1,19.679,0Z" transform="translate(674.286 944.242) rotate(-20)" fill="#4bb5ab"/><g transform="translate(660.001 945.503)"><path d="M51.838,111.34l-8.712-11.317a1.021,1.021,0,0,0-1.357-.238l-5.625,3.577H28.809a1.012,1.012,0,0,0-.281.047l-5.688,1.637-5.9-1.614L11.2,99.785a1.02,1.02,0,0,0-1.342.22L.226,111.94a1.02,1.02,0,0,0,.129,1.415L5.4,117.7l4.531,6.106A3.6,3.6,0,0,0,12.2,129.86a3.61,3.61,0,0,0,3.565,4.159H15.8v.073a3.607,3.607,0,0,0,3.607,3.607,3.68,3.68,0,0,0,.563-.044,3.607,3.607,0,0,0,6.138,2.2l.552-.552.232.187a3.605,3.605,0,0,0,6.113-2.649,3.6,3.6,0,0,0,3.661-3.659,3.6,3.6,0,0,0,3.661-3.663,3.6,3.6,0,0,0,3.081-5.57l3.308-6.929,4.974-4.28a1.02,1.02,0,0,0,.143-1.4ZM10.877,102,15,104.618,6.03,115.547l-3.6-3.094Zm.582,23.171,1.245-1.245c.038-.038.077-.073.118-.107a1.562,1.562,0,0,1,.85-.345H13.7c.044,0,.089-.006.134-.006a1.556,1.556,0,0,1,1.117.49,1.6,1.6,0,0,1-.069,2.22l-1.207,1.207a1.566,1.566,0,0,1-2.214-2.214Zm3.2,6.352a1.565,1.565,0,0,1,0-2.214l2.413-2.413a1.582,1.582,0,0,1,1.78-.307,1.56,1.56,0,0,1,.863,1.617,1.652,1.652,0,0,1-.466.943l-2.375,2.375a1.566,1.566,0,0,1-2.214,0ZM18.3,135.2a1.565,1.565,0,0,1,0-2.214l2.413-2.413a1.583,1.583,0,0,1,1.893-.248,1.558,1.558,0,0,1,.747,1.582,1.654,1.654,0,0,1-.464.919l-2.37,2.374a1.566,1.566,0,0,1-2.214,0Zm4.151,3.209a1.567,1.567,0,0,1,0-2.214L23.7,134.95a1.468,1.468,0,0,1,.118-.106h0a1.56,1.56,0,0,1,.694-.322h.018c.044-.008.088-.014.133-.018h.164a1.556,1.556,0,0,1,1.117.49,1.411,1.411,0,0,1,.1.119,1.616,1.616,0,0,1-.176,2.108l-1.2,1.2a1.567,1.567,0,0,1-2.214,0ZM41.5,127.017a1.567,1.567,0,0,1-2.214,0q-.033-.033-.069-.062l-6.563-6.632a1.021,1.021,0,0,0-1.451,1.436l6.634,6.7h0a1.566,1.566,0,1,1-2.214,2.214l-4.438-4.484a1.021,1.021,0,1,0-1.451,1.436l4.37,4.415a.971.971,0,0,0,.071.08,1.566,1.566,0,1,1-2.215,2.214l-2.422-2.447a1.021,1.021,0,1,0-1.451,1.436l2.355,2.379a.911.911,0,0,0,.072.08A1.567,1.567,0,0,1,28.3,138a2.259,2.259,0,0,0-.232-.185c-.067-.051-.084-.086-.051-.167s.084-.156.118-.239.068-.187.1-.282a3.68,3.68,0,0,0,.132-1.57,3.57,3.57,0,0,0-3.043-3.072,3.64,3.64,0,0,0-.874-3.285,3.58,3.58,0,0,0-2.571-1.128h-.108a3.572,3.572,0,0,0-3.536-3.679,3.671,3.671,0,0,0-.871.093,3.572,3.572,0,0,0-3.5-3.063,3.615,3.615,0,0,0-2.464.927l-3.945-5.316,9.439-11.5,3.008.823-3.929,6.932a3.607,3.607,0,0,0,1.36,4.916c.052.03.1.058.159.085l.012.006a3.61,3.61,0,0,0,4.745-1.451l2.553-4.5,4.558.323L41.5,124.8a1.568,1.568,0,0,1,0,2.214Zm.423-4.678L30.531,110.952a.9.9,0,0,0-.068-.062,1.021,1.021,0,0,0-.582-.234l-5.581-.4a1.037,1.037,0,0,0-.96.515l-2.87,5.066a1.566,1.566,0,1,1-2.724-1.544l3.832-6.762,1.553-.447.031-.01,5.8-1.673h7L44.7,116.515Zm4.118-7.425-8.084-10.282,4.126-2.624,7.554,9.812Zm0,0" transform="translate(0 -89.048)" fill="#343434"/><path d="M301.166,37.884a1.018,1.018,0,0,0,.722-.3l6.972-6.972a1.021,1.021,0,0,0-1.444-1.444l-6.972,6.972a1.021,1.021,0,0,0,.722,1.743Zm0,0" transform="translate(-269.632 -25.487)" fill="#343434"/><path d="M130.466,37.586a1.021,1.021,0,0,0,1.444-1.444l-6.972-6.972a1.021,1.021,0,0,0-1.444,1.444Zm0,0" transform="translate(-110.672 -25.487)" fill="#343434"/><path d="M246.981,48.51A1.021,1.021,0,0,0,248,47.489v-5.77a1.021,1.021,0,1,0-2.041,0v5.77A1.021,1.021,0,0,0,246.981,48.51Zm0,0" transform="translate(-220.957 -36.112)" fill="#343434"/><path d="M246.062,1.908a1.02,1.02,0,1,0,.321-1.2,1.02,1.02,0,0,0-.321,1.2Zm0,0" transform="translate(-220.979)" fill="#343434"/></g></g></svg>