<svg xmlns="http://www.w3.org/2000/svg" width="24.166" height="24.166" viewBox="0 0 24.166 24.166"><g transform="translate(0.001)"><path d="M211.625,209.313A2.313,2.313,0,1,1,209.313,207,2.313,2.313,0,0,1,211.625,209.313Zm0,0" transform="translate(-197.23 -197.23)" fill="#fff"/><path d="M146.581,137.085a2.3,2.3,0,0,0-1.317-1.317,3.838,3.838,0,0,0-1.288-.239c-.732-.033-.951-.041-2.8-.041s-2.072.007-2.8.04a3.841,3.841,0,0,0-1.288.239,2.3,2.3,0,0,0-1.317,1.317,3.84,3.84,0,0,0-.239,1.288c-.033.732-.041.951-.041,2.8s.007,2.072.041,2.8a3.838,3.838,0,0,0,.239,1.288,2.3,2.3,0,0,0,1.317,1.317,3.833,3.833,0,0,0,1.288.239c.732.033.951.04,2.8.04s2.072-.007,2.8-.04a3.833,3.833,0,0,0,1.288-.239,2.3,2.3,0,0,0,1.317-1.317,3.842,3.842,0,0,0,.239-1.288c.033-.732.04-.951.04-2.8s-.007-2.072-.04-2.8a3.834,3.834,0,0,0-.239-1.287Zm-5.409,7.655a3.563,3.563,0,1,1,3.563-3.563,3.563,3.563,0,0,1-3.563,3.563Zm3.7-6.434a.833.833,0,1,1,.833-.833.833.833,0,0,1-.833.833Zm0,0" transform="translate(-129.09 -129.094)" fill="#fff"/><path d="M12.083,0A12.083,12.083,0,1,0,24.165,12.083,12.083,12.083,0,0,0,12.083,0Zm6.9,14.943a5.09,5.09,0,0,1-.322,1.684,3.548,3.548,0,0,1-2.029,2.029,5.094,5.094,0,0,1-1.684.322c-.74.034-.976.042-2.86.042s-2.121-.008-2.861-.042a5.094,5.094,0,0,1-1.684-.322,3.548,3.548,0,0,1-2.029-2.029,5.089,5.089,0,0,1-.322-1.684c-.034-.74-.042-.976-.042-2.861s.008-2.121.042-2.86a5.091,5.091,0,0,1,.322-1.684A3.55,3.55,0,0,1,7.538,5.509a5.1,5.1,0,0,1,1.684-.322c.74-.034.976-.042,2.86-.042s2.121.008,2.86.042a5.1,5.1,0,0,1,1.684.322,3.549,3.549,0,0,1,2.029,2.029,5.09,5.09,0,0,1,.323,1.684c.034.74.042.976.042,2.86s-.007,2.118-.041,2.861Zm0,0" fill="#fff"/></g></svg>