<svg xmlns="http://www.w3.org/2000/svg" width="15.651" height="13" viewBox="0 0 15.651 13"><defs><style>.a{fill:#343434;}</style></defs><g transform="translate(0 -41.674)"><g transform="translate(0 41.674)"><path class="a" d="M14.771,46.947l.024.005H4.323l3.292-3.3a.865.865,0,0,0,0-1.216L7.1,41.924a.857.857,0,0,0-1.21,0L.249,47.567a.863.863,0,0,0,0,1.214l5.644,5.644a.858.858,0,0,0,1.21,0l.512-.513a.848.848,0,0,0,.25-.6.822.822,0,0,0-.25-.593L4.286,49.4h10.5a.887.887,0,0,0,.868-.878v-.725A.87.87,0,0,0,14.771,46.947Z" transform="translate(0 -41.674)"/></g></g></svg>