<svg xmlns="http://www.w3.org/2000/svg" width="23.123" height="28.904" viewBox="0 0 23.123 28.904"><defs><style>.a{fill:#292929;}</style></defs><g transform="translate(-48.003)"><g transform="translate(48.003)"><path class="a" d="M232.485,2.89a.482.482,0,0,0,.482-.482V.482a.482.482,0,1,0-.963,0V2.409A.482.482,0,0,0,232.485,2.89Z" transform="translate(-220.923)"/><path class="a" d="M140.041,25.333,141,27a.482.482,0,0,0,.838-.476l0-.006-.963-1.668a.482.482,0,0,0-.838.476Z" transform="translate(-134.437 -23.126)"/><path class="a" d="M72.85,92.87l.006,0,1.668.963a.482.482,0,1,0,.487-.831l-.006,0-1.668-.963a.482.482,0,0,0-.487.831Z" transform="translate(-71.13 -86.434)"/><path class="a" d="M50.893,184.482a.482.482,0,0,0-.482-.482H48.485a.482.482,0,0,0,0,.963h1.927A.482.482,0,0,0,50.893,184.482Z" transform="translate(-48.003 -172.92)"/><path class="a" d="M74.528,260.035l-.006,0L72.855,261a.482.482,0,1,0,.476.838l.006,0L75,260.872a.482.482,0,1,0-.476-.838Z" transform="translate(-71.129 -244.317)"/><path class="a" d="M365.994,261l-.006,0-1.668-.963a.482.482,0,0,0-.487.831l.006,0,1.668.963a.482.482,0,0,0,.487-.831Z" transform="translate(-344.591 -244.317)"/><path class="a" d="M386.412,184h-1.927a.482.482,0,1,0,0,.963h1.927a.482.482,0,0,0,0-.963Z" transform="translate(-363.77 -172.92)"/><path class="a" d="M364.131,93.9a.482.482,0,0,0,.241-.065l1.668-.963a.482.482,0,0,0-.476-.838l-.006,0L363.89,93a.482.482,0,0,0,.241.9Z" transform="translate(-344.642 -86.434)"/><path class="a" d="M308.238,27.178h0A.482.482,0,0,0,308.9,27h0l.963-1.668a.482.482,0,1,0-.831-.487l0,.006-.963,1.668A.482.482,0,0,0,308.238,27.178Z" transform="translate(-292.342 -23.126)"/><path class="a" d="M173.3,169.635a.482.482,0,0,0,.482-.482v-5.3h.963a1.927,1.927,0,1,0-1.927-1.927v.963h-.963v-.963a1.927,1.927,0,1,0-1.927,1.927h.963v5.3a.482.482,0,0,0,.963,0v-5.3h.963v5.3A.482.482,0,0,0,173.3,169.635Zm.482-7.708a.963.963,0,1,1,.963.963h-.963Zm-2.89.963h-.963a.963.963,0,1,1,.963-.963Z" transform="translate(-160.777 -150.365)"/><path class="a" d="M120.154,64.011a7.708,7.708,0,0,0-5.26,13.657,1.436,1.436,0,0,1,.55,1.1V79.9a1.445,1.445,0,0,0,.963,1.357v.57a1.436,1.436,0,0,0,.376.963,1.423,1.423,0,0,0,0,1.927,1.439,1.439,0,0,0,1.069,2.409.47.47,0,0,0,.4-.74.51.51,0,0,0-.054-.083.5.5,0,0,0-.134-.088c-.014-.007-.028-.013-.042-.019a.511.511,0,0,0-.152-.03l-.014,0a.482.482,0,1,1,0-.963h1.927a.482.482,0,0,0,0-.963h-1.927a.482.482,0,1,1,0-.963h1.927a.482.482,0,0,0,0-.963h-1.927a.482.482,0,0,1-.482-.482v-.482h2.409a.482.482,0,0,0,0-.963h-2.89a.482.482,0,0,1-.482-.482v-1.13a2.4,2.4,0,0,0-.9-1.847,6.744,6.744,0,0,1,4.6-11.947,6.822,6.822,0,0,1,6.416,6.694,6.7,6.7,0,0,1-2.5,5.281,2.388,2.388,0,0,0-.87,1.875V79.9a.482.482,0,0,1-.482.482h-1.445a.482.482,0,1,0,0,.963h.963v.482a.482.482,0,0,1-.482.482h-.482a.482.482,0,1,0,0,.963h.482a.482.482,0,1,1,0,.963h-.482a.482.482,0,1,0,0,.963h.482a.482.482,0,1,1,0,.963H119.3a.482.482,0,1,0,0,.963h1.845a1.445,1.445,0,0,1-2.443.478.482.482,0,0,0-.72.641,2.4,2.4,0,0,0,4.167-1.2,1.431,1.431,0,0,0,.629-2.333,1.423,1.423,0,0,0,0-1.927,1.436,1.436,0,0,0,.376-.963v-.57a1.445,1.445,0,0,0,.963-1.357V78.825a1.448,1.448,0,0,1,.511-1.126,7.662,7.662,0,0,0,2.861-6.038A7.8,7.8,0,0,0,120.154,64.011Z" transform="translate(-108.218 -60.148)"/></g></g></svg>