<svg xmlns="http://www.w3.org/2000/svg" width="21" height="17.5" viewBox="0 0 21 17.5"><defs><style>.a{opacity:0.5;}</style></defs><g transform="translate(-3 -6.5)"><path class="a" d="M23.975,13.35l-1.8-5.715A1.493,1.493,0,0,0,20.72,6.5H6.28A1.48,1.48,0,0,0,4.835,7.605L3.025,13.35a.386.386,0,0,0-.01.075A.4.4,0,0,0,3,13.5V23a1,1,0,0,0,1,1H23a1,1,0,0,0,1-1V13.5a.4.4,0,0,0-.015-.075.386.386,0,0,0-.01-.075ZM5.8,7.88A.5.5,0,0,1,6.28,7.5H20.72a.512.512,0,0,1,.5.41L22.82,13H4.18ZM20,14v2.565l-.725-.48A.508.508,0,0,0,19,16a.5.5,0,0,0-.275.085l-.725.48V14ZM4,23V14H17v3.5a.492.492,0,0,0,.265.44.514.514,0,0,0,.515-.025L19,17.1l1.225.815A.508.508,0,0,0,20.5,18a.5.5,0,0,0,.235-.06A.492.492,0,0,0,21,17.5V14h2v9Z" transform="translate(0 0)"/></g></svg>