<svg xmlns="http://www.w3.org/2000/svg" width="17.12" height="17.1" viewBox="0 0 17.12 17.1"><path d="M15.983,6.934A1.71,1.71,0,0,0,14.307,5.56H14.1a4.56,4.56,0,0,0-9.12,0H4.777A1.71,1.71,0,0,0,3.1,6.934L.992,17.416a.575.575,0,0,0,.57.684h15.96a.591.591,0,0,0,.57-.684ZM9.542,2.14a3.42,3.42,0,0,1,3.42,3.42H6.122a3.42,3.42,0,0,1,3.42-3.42ZM2.257,16.96l1.961-9.8a.57.57,0,0,1,.57-.456h.194V9.55a.57.57,0,1,0,1.14,0V6.7h6.84V9.55a.57.57,0,1,0,1.14,0V6.7h.205a.57.57,0,0,1,.57.456l1.949,9.8Z" transform="translate(-0.981 -1)"/></svg>