<svg xmlns="http://www.w3.org/2000/svg" width="22.115" height="24.125" viewBox="0 0 22.115 24.125"><path d="M313.1,7.539a3.77,3.77,0,1,1,3.77-3.77A3.774,3.774,0,0,1,313.1,7.539Zm0-6.031a2.262,2.262,0,1,0,2.262,2.262A2.264,2.264,0,0,0,313.1,1.508Zm0,0" transform="translate(-294.757)"/><path d="M313.1,359.539a3.77,3.77,0,1,1,3.77-3.77A3.774,3.774,0,0,1,313.1,359.539Zm0-6.031a2.262,2.262,0,1,0,2.262,2.262A2.264,2.264,0,0,0,313.1,353.508Zm0,0" transform="translate(-294.757 -335.414)"/><path d="M3.77,183.539a3.77,3.77,0,1,1,3.77-3.77A3.774,3.774,0,0,1,3.77,183.539Zm0-6.031a2.262,2.262,0,1,0,2.262,2.262A2.264,2.264,0,0,0,3.77,177.508Zm0,0" transform="translate(0 -167.707)"/><path d="M120.444,102.385a.753.753,0,0,1-.374-1.408l9.327-5.318a.754.754,0,0,1,.746,1.31l-9.327,5.317a.755.755,0,0,1-.372.1Zm0,0" transform="translate(-114.05 -91.057)"/><path d="M129.791,278.375a.748.748,0,0,1-.372-.1l-9.327-5.318a.754.754,0,0,1,.746-1.31l9.327,5.318a.754.754,0,0,1-.374,1.409Zm0,0" transform="translate(-114.07 -258.753)"/></svg>