<svg xmlns="http://www.w3.org/2000/svg" width="71.536" height="69.416" viewBox="0 0 71.536 69.416"><g transform="translate(-781 -927.943)"><path d="M19.679,0c10.868,0,27.983,1.835,27.983,12.7S30.547,39.36,19.679,39.36A19.679,19.679,0,0,1,19.679,0Z" transform="translate(794.286 944.242) rotate(-20)" fill="#4bb5ab"/><g transform="translate(779 944)"><path d="M33.568,51.119h13.7a2.568,2.568,0,0,0,2.568-2.568V36.568A2.568,2.568,0,0,0,47.263,34h-13.7A2.568,2.568,0,0,0,31,36.568V48.551a2.568,2.568,0,0,0,2.568,2.568Zm-.856-14.551a.856.856,0,0,1,.856-.856h13.7a.856.856,0,0,1,.856.856V48.551a.856.856,0,0,1-.856.856h-13.7a.856.856,0,0,1-.856-.856Z" transform="translate(-4.177 -4.609)" fill="#343434"/><path d="M46.568,42.28H48.28V38.856A.856.856,0,0,0,47.424,38H44v1.712h2.568Z" transform="translate(-6.049 -5.185)" fill="#343434"/><rect width="1" height="1" transform="translate(19.358 41)" fill="#343434"/><path d="M50.79,48.222H49.078V27.593A4.294,4.294,0,0,0,52.5,23.4a.565.565,0,0,0-.009-.12l-1.5-10.512a2.568,2.568,0,0,0-2.534-2.208H42.23V4.568A2.576,2.576,0,0,0,39.662,2H15.7a2.576,2.576,0,0,0-2.568,2.568V10.56H6.9a2.568,2.568,0,0,0-2.534,2.208l-1.5,10.511a.565.565,0,0,0-.009.12A4.294,4.294,0,0,0,6.28,27.593V48.222H4.568a2.568,2.568,0,0,0,0,5.136H50.79a2.568,2.568,0,0,0,0-5.136Zm-5.136-35.95h2.8a.864.864,0,0,1,.847.736L50.79,23.459a2.568,2.568,0,1,1-5.136-.06Zm-3.424,7.7v-7.7h1.712V23.4a2.568,2.568,0,1,1-5.136,0v-.856h.856a2.576,2.576,0,0,0,2.568-2.568ZM14.839,4.568a.856.856,0,0,1,.856-.856H39.662a.856.856,0,0,1,.856.856V19.975a.856.856,0,0,1-.856.856H15.7a.856.856,0,0,1-.856-.856ZM37.1,22.543V23.4a2.568,2.568,0,0,1-5.136,0v-.856Zm-6.848,0V23.4a2.568,2.568,0,0,1-5.136,0v-.856Zm-6.848,0V23.4a2.568,2.568,0,1,1-5.136,0v-.856ZM11.416,12.272h1.712v7.7A2.576,2.576,0,0,0,15.7,22.543h.856V23.4a2.568,2.568,0,1,1-5.136,0Zm-.856,13.7a4.28,4.28,0,0,0,6.848,0,4.28,4.28,0,0,0,6.848,0,4.28,4.28,0,0,0,6.848,0,4.28,4.28,0,0,0,6.848,0,4.28,4.28,0,0,0,6.848,0,4.275,4.275,0,0,0,2.568,1.618V48.222H23.4V36.239a6.85,6.85,0,0,0-13.7,0V48.222H7.992V27.585a4.275,4.275,0,0,0,2.568-1.618ZM21.687,36.239V48.222H11.416V36.239a5.136,5.136,0,1,1,10.272,0ZM4.568,23.459,6.057,13.008a.864.864,0,0,1,.847-.736H9.7V23.4a2.568,2.568,0,0,1-5.136.06ZM50.79,51.646H4.568a.856.856,0,1,1,0-1.712H50.79a.856.856,0,1,1,0,1.712Z" fill="#343434"/><path d="M26.7,6H21.568A2.576,2.576,0,0,0,19,8.568v8.56A2.576,2.576,0,0,0,21.568,19.7H26.7a2.576,2.576,0,0,0,2.568-2.568V8.568A2.576,2.576,0,0,0,26.7,6Zm.856,11.128a.856.856,0,0,1-.856.856H21.568a.856.856,0,0,1-.856-.856V8.568a.856.856,0,0,1,.856-.856H26.7a.856.856,0,0,1,.856.856Z" transform="translate(-2.449 -0.576)" fill="#343434"/><rect width="2" height="2" transform="translate(20.358 15)" fill="#343434"/><path d="M43.272,13.992V12.28H41.44a3.566,3.566,0,0,0-.368-.873l1.3-1.3L41.166,8.9l-1.3,1.3a3.566,3.566,0,0,0-.873-.368V8H37.28V9.832a3.566,3.566,0,0,0-.873.368l-1.3-1.3L33.9,10.106l1.3,1.3a3.566,3.566,0,0,0-.368.873H33v1.712h1.832a3.566,3.566,0,0,0,.368.873l-1.3,1.3,1.207,1.207,1.3-1.3a3.566,3.566,0,0,0,.873.368v1.832h1.712V16.44a3.566,3.566,0,0,0,.873-.368l1.3,1.3,1.207-1.207-1.3-1.3a3.566,3.566,0,0,0,.368-.873Zm-5.136.856a1.712,1.712,0,1,1,1.712-1.712,1.712,1.712,0,0,1-1.712,1.712Z" transform="translate(-4.465 -0.864)" fill="#343434"/></g></g></svg>