<svg xmlns="http://www.w3.org/2000/svg" width="60.536" height="69.415" viewBox="0 0 60.536 69.415"><g transform="translate(-886 -927.943)"><path d="M19.679,0c10.868,0,27.983,1.835,27.983,12.7S30.547,39.36,19.679,39.36A19.679,19.679,0,0,1,19.679,0Z" transform="translate(888.286 944.242) rotate(-20)" fill="#4bb5ab"/><g transform="translate(821.943 946)"><path d="M66.127,51.357H100.5a2.07,2.07,0,0,0,2.067-2.067V47.323a.752.752,0,0,0-1.5,0V49.29a.563.563,0,0,1-.563.563h-4.27V43.216a.752.752,0,0,0-1.5,0v6.637H71.9V43.216a.752.752,0,0,0-1.5,0v6.637H66.127a.563.563,0,0,1-.563-.563V42.161a5.967,5.967,0,0,1,3.444-5.376L74.6,34.6l7.326,12.975a1.59,1.59,0,0,0,2.77,0l7.315-12.96c5.839,2.261,5.614,2.16,5.923,2.317a6.017,6.017,0,0,1,3.125,5.229v1.651a.752.752,0,0,0,1.5,0V42.161a7.467,7.467,0,0,0-3.941-6.567c-.411-.209.242.06-10.556-4.12V29.509a7.9,7.9,0,0,0,3.183-5.427A3.743,3.743,0,0,0,94.3,22.053a1.921,1.921,0,0,0,1.916,2.075H98.34a1.921,1.921,0,0,0,1.86-2.408h0l-.872-3.328a2.342,2.342,0,0,0-1.3-3.357V8.088h0a1.713,1.713,0,0,0-.951-1.54h0L84.633.31a2.96,2.96,0,0,0-2.639,0L69.544,6.548a1.723,1.723,0,0,0,0,3.08l3.385,1.7V17.56a2.81,2.81,0,0,0,.049.519,3.531,3.531,0,0,0,2.4,6.008A7.807,7.807,0,0,0,78.552,29.5v1.943l-10.1,3.944-.013.005a7.416,7.416,0,0,0-4.382,6.77V49.29a2.07,2.07,0,0,0,2.07,2.067Zm14.554-9.049L78.811,39a1.781,1.781,0,0,0,.865.226,1.745,1.745,0,0,0,1.157-.435l.434.434Zm3.743-7.378a1.847,1.847,0,0,0-.331.461H82.541a1.849,1.849,0,0,0-.331-.461l-2.494-2.494a1.423,1.423,0,0,0,.341-.945V30.357a8.416,8.416,0,0,0,3.359.674,7.846,7.846,0,0,0,3.147-.657V31.5a1.471,1.471,0,0,0,.345.948Zm.3,2.783-.5.5H82.392l-.491-.491.309-.309a1.815,1.815,0,0,0,.358-.521h1.5a1.8,1.8,0,0,0,.358.521Zm-1.333,9.123a.085.085,0,0,1-.15,0l-1.41-2.5.875-4.618h1.2l.879,4.64ZM85.93,42.33l-.589-3.11.446-.446a1.744,1.744,0,0,0,1.17.447,1.771,1.771,0,0,0,.85-.217Zm2.37-9.151,2.291.887-.155.275-3.3,3.3a.257.257,0,0,1-.359,0l-1.29-1.29a.26.26,0,0,1,0-.359ZM91.309,22.56v-2.1A5.016,5.016,0,0,0,92.9,19.5a2.216,2.216,0,0,1,.257,1.028,2.125,2.125,0,0,1-1.848,2.032Zm7.033.065H96.218a.417.417,0,0,1-.4-.523l.691-2.635a2.336,2.336,0,0,0,1.549,0l.691,2.635a.416.416,0,0,1-.4.523Zm-1.062-6.21a.839.839,0,1,1-.84.839A.84.84,0,0,1,97.28,16.415Zm-.752-1.38a2.342,2.342,0,0,0-1.3,3.357l-.568,2.165v-.026a3.76,3.76,0,0,0-1-2.535,2.809,2.809,0,0,0,.036-.44V11.324l2.831-1.418v5.129ZM70.218,8.283a.218.218,0,0,1,0-.39L82.667,1.656a1.448,1.448,0,0,1,1.292,0L95.3,7.336H85.583a2.392,2.392,0,1,0,0,1.5H95.3L83.959,14.52a1.448,1.448,0,0,1-1.292,0ZM84.2,8.088a.888.888,0,1,1-.887-.887A.888.888,0,0,1,84.2,8.088ZM75.316,22.561a2.116,2.116,0,0,1-1.851-2.021,2.009,2.009,0,0,1,.286-1.009,4.905,4.905,0,0,0,1.565.927Zm-.247-3.909a1.244,1.244,0,0,1-.636-1.1V17.09a20.119,20.119,0,0,0,7.057,1.958.753.753,0,0,0,.134-1.5A18.631,18.631,0,0,1,74.433,15.4V12.078l7.56,3.788a2.96,2.96,0,0,0,2.639,0l7.56-3.788V15.4A18.631,18.631,0,0,1,85,17.549a.753.753,0,1,0,.134,1.5,20.117,20.117,0,0,0,7.057-1.958v.466a1.243,1.243,0,0,1-.636,1.1,17.4,17.4,0,0,1-16.487,0Zm1.752,4.485V21.085a18.932,18.932,0,0,0,12.984,0v2.052a6.493,6.493,0,1,1-12.985,0Zm1.485,10.017,2.84,2.84a.26.26,0,0,1,0,.359l-1.29,1.29a.257.257,0,0,1-.359,0l-3.328-3.328-.151-.267Z" fill="#343434"/></g></g></svg>