<svg xmlns="http://www.w3.org/2000/svg" width="36.705" height="36.705" viewBox="0 0 36.705 36.705"><path d="M18.353,0A18.353,18.353,0,1,0,36.705,18.353,18.353,18.353,0,0,0,18.353,0Zm0,34.083A15.731,15.731,0,1,1,34.083,18.353,15.731,15.731,0,0,1,18.353,34.083Z"/><g transform="translate(6.554 6.554)"><path d="M97.131,85.333a1.311,1.311,0,0,0-1.311,1.311V95.82H86.644a1.311,1.311,0,1,0,0,2.622H97.131a1.311,1.311,0,0,0,1.311-1.311V86.644A1.311,1.311,0,0,0,97.131,85.333Z" transform="translate(-85.333 -85.333)"/></g></svg>