<svg xmlns="http://www.w3.org/2000/svg" width="16.621" height="14.543" viewBox="0 0 16.621 14.543"><g transform="translate(0 -0.008)"><path d="M88.795,6.933a3.463,3.463,0,1,1,3.463-3.463A3.467,3.467,0,0,1,88.795,6.933Zm0-5.886a2.424,2.424,0,1,0,2.424,2.424,2.427,2.427,0,0,0-2.424-2.424Zm0,0" transform="translate(-82.562)"/><path d="M11.946,262.241H.519A.52.52,0,0,1,0,261.721V259.3a3.293,3.293,0,0,1,3.289-3.289H9.176a3.293,3.293,0,0,1,3.289,3.289v2.424A.52.52,0,0,1,11.946,262.241ZM1.039,261.2H11.427v-1.9a2.253,2.253,0,0,0-2.251-2.251H3.289A2.253,2.253,0,0,0,1.039,259.3Zm0,0" transform="translate(0 -247.69)"/><path d="M305.074,187.715h-5.887a.519.519,0,0,1,0-1.039h5.887a.519.519,0,1,1,0,1.039Zm0,0" transform="translate(-288.972 -180.608)"/><path d="M395.191,107.885a.52.52,0,0,1-.367-.887l2.4-2.4-2.4-2.4a.52.52,0,0,1,.735-.735l2.77,2.77a.52.52,0,0,1,0,.735l-2.77,2.77A.516.516,0,0,1,395.191,107.885Zm0,0" transform="translate(-381.86 -98.009)"/></g></svg>